<svg xmlns="http://www.w3.org/2000/svg" version="1.1" xmlns:xlink="http://www.w3.org/1999/xlink" xmlns:svgjs="http://svgjs.dev/svgjs" viewBox="0 0 10.036627012803955 9.024187202124882"><g transform="matrix(1,0,0,1,0.7928552544488525,6.8813319476760295)"><rect width="10.036627012803955" height="10.036627012803955" x="-0.7928552544488525" y="-7.387551853015565" fill="#ffffff"></rect><g><path d=" M 0.6 1.0199999999999998 Q 0.4455 1.0199999999999998 0.333 0.9569999999999999 Q 0.2205 0.8939999999999999 0.159 0.7844999999999999 Q 0.0975 0.6749999999999998 0.0975 0.5354999999999999 Q 0.0975 0.4274999999999999 0.1395 0.3314999999999999 Q 0.1815 0.23549999999999993 0.25425000000000003 0.16049999999999986 Q 0.327 0.08549999999999991 0.4215 0.042749999999999844 Q 0.516 -2.220446049250313e-16 0.6225 -2.220446049250313e-16 Q 0.6990000000000001 -2.220446049250313e-16 0.7515000000000001 0.009749999999999925 Q 0.804 0.01949999999999985 0.8452500000000001 0.03524999999999989 Q 0.8865000000000001 0.05099999999999982 0.9285 0.07199999999999984 L 0.9375 0.33899999999999986 L 0.9105 0.33899999999999986 L 0.807 0.1439999999999999 Q 0.756 0.10799999999999987 0.71475 0.09149999999999991 Q 0.6735 0.07499999999999984 0.6225 0.07499999999999984 Q 0.519 0.07499999999999984 0.4365 0.1289999999999999 Q 0.354 0.18299999999999983 0.30675 0.2782499999999999 Q 0.2595 0.37349999999999983 0.2595 0.4979999999999999 Q 0.2595 0.6375 0.30525 0.73725 Q 0.35100000000000003 0.8369999999999999 0.429 0.8894999999999998 Q 0.507 0.942 0.6015 0.942 Q 0.6795 0.942 0.73275 0.9209999999999999 Q 0.786 0.8999999999999999 0.8280000000000001 0.8714999999999999 L 0.9285 0.7034999999999999 L 0.9540000000000001 0.7034999999999999 L 0.936 0.9449999999999998 Q 0.87 0.9779999999999999 0.795 0.9989999999999999 Q 0.72 1.0199999999999998 0.6 1.0199999999999998 M 1.313977294921875 1.0199999999999998 Q 1.2419772949218753 1.0199999999999998 1.1947272949218752 0.9772499999999998 Q 1.1474772949218752 0.9344999999999999 1.1474772949218752 0.8594999999999999 Q 1.1474772949218752 0.7859999999999999 1.2007272949218752 0.7327499999999999 Q 1.2539772949218753 0.6794999999999999 1.3859772949218752 0.6479999999999999 L 1.5284772949218752 0.6149999999999999 L 1.5284772949218752 0.5099999999999999 Q 1.5284772949218752 0.45599999999999985 1.4887272949218753 0.41999999999999993 Q 1.448977294921875 0.3839999999999999 1.3964772949218751 0.3839999999999999 Q 1.3409772949218752 0.3839999999999999 1.319227294921875 0.41249999999999987 Q 1.2974772949218751 0.44099999999999984 1.2974772949218751 0.49049999999999994 L 1.2974772949218751 0.5384999999999999 L 1.289977294921875 0.5459999999999998 L 1.2074772949218753 0.5459999999999998 Q 1.184977294921875 0.5459999999999998 1.1767272949218752 0.53775 Q 1.1684772949218751 0.5294999999999999 1.1684772949218751 0.5024999999999998 Q 1.1684772949218751 0.4694999999999999 1.1887272949218752 0.43574999999999986 Q 1.2089772949218751 0.4019999999999999 1.2509772949218751 0.37649999999999983 Q 1.295977294921875 0.34799999999999986 1.342477294921875 0.3307499999999999 Q 1.388977294921875 0.3134999999999999 1.4414772949218753 0.3134999999999999 Q 1.4984772949218752 0.3134999999999999 1.5517272949218752 0.32924999999999993 Q 1.6049772949218752 0.34499999999999986 1.6379772949218752 0.38249999999999984 Q 1.670977294921875 0.41999999999999993 1.670977294921875 0.4829999999999999 L 1.670977294921875 0.9014999999999999 Q 1.681477294921875 0.9119999999999999 1.7002272949218753 0.9194999999999999 Q 1.7189772949218751 0.9269999999999999 1.751977294921875 0.9269999999999999 L 1.8044772949218753 0.9269999999999999 L 1.810477294921875 0.9299999999999999 L 1.810477294921875 0.9389999999999998 Q 1.7924772949218752 0.9704999999999999 1.7557272949218752 0.9952499999999999 Q 1.7189772949218751 1.0199999999999998 1.6664772949218751 1.0199999999999998 Q 1.6154772949218752 1.0199999999999998 1.5839772949218753 0.9952499999999999 Q 1.5524772949218753 0.9704999999999999 1.5389772949218752 0.9269999999999999 L 1.5284772949218752 0.9269999999999999 Q 1.4894772949218753 0.9659999999999999 1.4332272949218752 0.9929999999999999 Q 1.376977294921875 1.0199999999999998 1.313977294921875 1.0199999999999998 M 1.283977294921875 0.8264999999999999 Q 1.283977294921875 0.9194999999999999 1.3934772949218752 0.9194999999999999 Q 1.4264772949218751 0.9194999999999999 1.4572272949218752 0.91275 Q 1.4879772949218752 0.9059999999999999 1.5284772949218752 0.8894999999999998 L 1.5284772949218752 0.6674999999999999 Q 1.4204772949218751 0.6884999999999999 1.3679772949218751 0.7124999999999999 Q 1.3154772949218752 0.7364999999999999 1.2997272949218752 0.7642499999999999 Q 1.283977294921875 0.7919999999999999 1.283977294921875 0.8264999999999999 M 1.8884699707031252 1.005 L 1.8884699707031252 0.9809999999999999 L 1.984469970703125 0.9329999999999998 L 1.984469970703125 0.48449999999999993 L 1.8929699707031251 0.40949999999999986 L 1.8929699707031251 0.39749999999999985 L 2.099969970703125 0.3134999999999999 L 2.110469970703125 0.3134999999999999 L 2.123969970703125 0.4244999999999999 L 2.131469970703125 0.4244999999999999 Q 2.186969970703125 0.3689999999999999 2.237969970703125 0.34124999999999983 Q 2.2889699707031252 0.3134999999999999 2.351969970703125 0.3134999999999999 Q 2.423969970703125 0.3134999999999999 2.474969970703125 0.3457499999999999 Q 2.525969970703125 0.3779999999999999 2.540969970703125 0.44099999999999984 L 2.5469699707031253 0.44099999999999984 Q 2.6084699707031254 0.37649999999999983 2.662469970703125 0.34499999999999986 Q 2.716469970703125 0.3134999999999999 2.783969970703125 0.3134999999999999 Q 2.870969970703125 0.3134999999999999 2.925719970703125 0.3577499999999999 Q 2.9804699707031252 0.4019999999999999 2.9804699707031252 0.49049999999999994 L 2.9804699707031252 0.9329999999999998 L 3.0764699707031253 0.9809999999999999 L 3.0764699707031253 1.005 L 2.738969970703125 1.005 L 2.738969970703125 0.9809999999999999 L 2.8394699707031252 0.9329999999999998 L 2.8394699707031252 0.5594999999999999 Q 2.8394699707031252 0.4949999999999999 2.801969970703125 0.4627499999999999 Q 2.764469970703125 0.4304999999999999 2.705969970703125 0.4304999999999999 Q 2.659469970703125 0.4304999999999999 2.6174699707031253 0.4462499999999999 Q 2.575469970703125 0.46199999999999986 2.5469699707031253 0.4919999999999999 L 2.5469699707031253 0.9329999999999998 L 2.644469970703125 0.9809999999999999 L 2.644469970703125 1.005 L 2.311469970703125 1.005 L 2.311469970703125 0.9809999999999999 L 2.4059699707031252 0.9329999999999998 L 2.4059699707031252 0.5594999999999999 Q 2.4059699707031252 0.4949999999999999 2.369219970703125 0.4627499999999999 Q 2.332469970703125 0.4304999999999999 2.273969970703125 0.4304999999999999 Q 2.237969970703125 0.4304999999999999 2.1952199707031252 0.4424999999999999 Q 2.152469970703125 0.4544999999999999 2.1254699707031253 0.47999999999999987 L 2.1254699707031253 0.9329999999999998 L 2.216969970703125 0.9809999999999999 L 2.216969970703125 1.005 L 1.8884699707031252 1.005 M 3.1919626464843747 1.3499999999999999 L 3.1919626464843747 1.3259999999999998 L 3.2879626464843748 1.278 L 3.2879626464843748 0.4859999999999999 L 3.196462646484375 0.40949999999999986 L 3.196462646484375 0.39749999999999985 L 3.4034626464843747 0.3134999999999999 L 3.413962646484375 0.3134999999999999 L 3.4259626464843747 0.4049999999999999 L 3.436462646484375 0.4049999999999999 Q 3.491962646484375 0.3569999999999999 3.5444626464843747 0.3352499999999998 Q 3.596962646484375 0.3134999999999999 3.6584626464843746 0.3134999999999999 Q 3.7319626464843747 0.3134999999999999 3.7904626464843747 0.3524999999999999 Q 3.8489626464843747 0.39149999999999985 3.883462646484375 0.4627499999999999 Q 3.9179626464843746 0.5339999999999998 3.9179626464843746 0.6344999999999998 Q 3.9179626464843746 0.7559999999999999 3.8714626464843747 0.8422499999999999 Q 3.8249626464843747 0.9284999999999999 3.746962646484375 0.9742499999999998 Q 3.668962646484375 1.0199999999999998 3.574462646484375 1.0199999999999998 Q 3.493462646484375 1.0199999999999998 3.4289626464843748 1.005 L 3.4289626464843748 1.278 L 3.538462646484375 1.3259999999999998 L 3.538462646484375 1.3499999999999999 L 3.1919626464843747 1.3499999999999999 M 3.5669626464843747 0.4214999999999999 Q 3.4949626464843746 0.4214999999999999 3.4289626464843748 0.46199999999999986 L 3.4289626464843748 0.8879999999999999 Q 3.467962646484375 0.9209999999999999 3.5107126464843748 0.9337499999999999 Q 3.553462646484375 0.9464999999999999 3.605962646484375 0.9464999999999999 Q 3.6509626464843747 0.9464999999999999 3.689962646484375 0.9209999999999999 Q 3.7289626464843746 0.8954999999999999 3.7522126464843746 0.8377499999999999 Q 3.7754626464843746 0.7799999999999999 3.7754626464843746 0.6824999999999999 Q 3.7754626464843746 0.5909999999999999 3.746962646484375 0.5339999999999998 Q 3.718462646484375 0.47699999999999987 3.671212646484375 0.4492499999999999 Q 3.623962646484375 0.4214999999999999 3.5669626464843747 0.4214999999999999 M 4.316994873046875 1.0199999999999998 Q 4.228494873046875 1.0199999999999998 4.172244873046875 0.9749999999999999 Q 4.1159948730468745 0.9299999999999999 4.1159948730468745 0.8429999999999999 L 4.1159948730468745 0.3989999999999999 L 4.019994873046874 0.3524999999999999 L 4.019994873046874 0.3284999999999999 L 4.2569948730468745 0.3284999999999999 L 4.2569948730468745 0.7739999999999999 Q 4.2569948730468745 0.8369999999999999 4.295244873046875 0.8699999999999999 Q 4.333494873046875 0.9029999999999999 4.394994873046874 0.9029999999999999 Q 4.432494873046875 0.9029999999999999 4.477494873046875 0.8902499999999999 Q 4.522494873046875 0.8775 4.549494873046875 0.8519999999999999 L 4.549494873046875 0.3989999999999999 L 4.447494873046875 0.3524999999999999 L 4.447494873046875 0.3284999999999999 L 4.691994873046875 0.3284999999999999 L 4.691994873046875 0.9374999999999999 L 4.7954948730468745 0.9809999999999999 L 4.7954948730468745 1.005 L 4.549494873046875 1.005 L 4.549494873046875 0.9104999999999999 L 4.541994873046875 0.9104999999999999 Q 4.486494873046874 0.9659999999999999 4.433994873046875 0.9929999999999999 Q 4.381494873046875 1.0199999999999998 4.316994873046875 1.0199999999999998 M 5.150984619140624 1.0199999999999998 Q 5.078984619140625 1.0199999999999998 5.027234619140625 1.00725 Q 4.975484619140625 0.9944999999999999 4.922984619140625 0.9674999999999999 L 4.922984619140625 0.7994999999999999 L 4.9454846191406245 0.7994999999999999 L 4.993484619140625 0.8804999999999998 Q 5.042984619140625 0.9629999999999999 5.146484619140625 0.9629999999999999 Q 5.206484619140625 0.9629999999999999 5.238734619140625 0.9359999999999999 Q 5.270984619140624 0.9089999999999999 5.270984619140624 0.8609999999999999 Q 5.270984619140624 0.8219999999999998 5.250734619140625 0.7979999999999998 Q 5.230484619140625 0.7739999999999999 5.192234619140625 0.7559999999999999 Q 5.1539846191406244 0.7379999999999999 5.099984619140625 0.7124999999999999 Q 5.021984619140625 0.6779999999999999 4.980734619140625 0.6359999999999999 Q 4.939484619140624 0.5939999999999999 4.939484619140624 0.5205 Q 4.939484619140624 0.46199999999999986 4.971734619140625 0.41549999999999987 Q 5.003984619140625 0.3689999999999999 5.054984619140625 0.34124999999999983 Q 5.105984619140624 0.3134999999999999 5.162984619140625 0.3134999999999999 Q 5.216984619140625 0.3134999999999999 5.264984619140625 0.32624999999999993 Q 5.312984619140625 0.33899999999999986 5.359484619140625 0.3629999999999999 L 5.359484619140625 0.5294999999999999 L 5.338484619140624 0.5294999999999999 L 5.288984619140625 0.4514999999999999 Q 5.239484619140625 0.37349999999999983 5.167484619140625 0.37349999999999983 Q 5.117984619140625 0.37349999999999983 5.087984619140625 0.3982499999999999 Q 5.057984619140624 0.42299999999999993 5.057984619140624 0.4664999999999999 Q 5.057984619140624 0.5145 5.093234619140625 0.5407499999999998 Q 5.128484619140624 0.567 5.2034846191406245 0.5999999999999999 Q 5.246984619140624 0.6194999999999999 5.288984619140625 0.6412499999999999 Q 5.330984619140625 0.6629999999999998 5.358734619140625 0.7012499999999999 Q 5.386484619140624 0.7394999999999998 5.386484619140624 0.8099999999999998 Q 5.386484619140624 0.8789999999999999 5.349734619140625 0.9254999999999999 Q 5.312984619140625 0.9719999999999999 5.258984619140625 0.9959999999999999 Q 5.204984619140625 1.0199999999999998 5.150984619140624 1.0199999999999998 M 6.080959716796874 1.0199999999999998 Q 5.926459716796875 1.0199999999999998 5.813959716796875 0.9569999999999999 Q 5.701459716796875 0.8939999999999999 5.6399597167968745 0.7844999999999999 Q 5.578459716796875 0.6749999999999998 5.578459716796875 0.5354999999999999 Q 5.578459716796875 0.4274999999999999 5.620459716796875 0.3314999999999999 Q 5.662459716796874 0.23549999999999993 5.7352097167968745 0.16049999999999986 Q 5.807959716796875 0.08549999999999991 5.902459716796875 0.042749999999999844 Q 5.996959716796875 -2.220446049250313e-16 6.103459716796875 -2.220446049250313e-16 Q 6.1799597167968745 -2.220446049250313e-16 6.232459716796875 0.009749999999999925 Q 6.284959716796875 0.01949999999999985 6.326209716796875 0.03524999999999989 Q 6.3674597167968745 0.05099999999999982 6.409459716796874 0.07199999999999984 L 6.418459716796875 0.33899999999999986 L 6.3914597167968745 0.33899999999999986 L 6.287959716796875 0.1439999999999999 Q 6.236959716796875 0.10799999999999987 6.195709716796875 0.09149999999999991 Q 6.154459716796874 0.07499999999999984 6.103459716796875 0.07499999999999984 Q 5.999959716796875 0.07499999999999984 5.917459716796874 0.1289999999999999 Q 5.834959716796875 0.18299999999999983 5.787709716796875 0.2782499999999999 Q 5.740459716796875 0.37349999999999983 5.740459716796875 0.4979999999999999 Q 5.740459716796875 0.6375 5.786209716796875 0.73725 Q 5.831959716796875 0.8369999999999999 5.909959716796875 0.8894999999999998 Q 5.987959716796874 0.942 6.082459716796874 0.942 Q 6.160459716796875 0.942 6.213709716796875 0.9209999999999999 Q 6.266959716796874 0.8999999999999999 6.308959716796875 0.8714999999999999 L 6.409459716796874 0.7034999999999999 L 6.434959716796874 0.7034999999999999 L 6.416959716796875 0.9449999999999998 Q 6.350959716796875 0.9779999999999999 6.275959716796875 0.9989999999999999 Q 6.200959716796874 1.0199999999999998 6.080959716796874 1.0199999999999998 M 6.7949370117187495 1.0199999999999998 Q 6.7229370117187495 1.0199999999999998 6.6756870117187495 0.9772499999999998 Q 6.628437011718749 0.9344999999999999 6.628437011718749 0.8594999999999999 Q 6.628437011718749 0.7859999999999999 6.68168701171875 0.7327499999999999 Q 6.73493701171875 0.6794999999999999 6.86693701171875 0.6479999999999999 L 7.00943701171875 0.6149999999999999 L 7.00943701171875 0.5099999999999999 Q 7.00943701171875 0.45599999999999985 6.96968701171875 0.41999999999999993 Q 6.929937011718749 0.3839999999999999 6.87743701171875 0.3839999999999999 Q 6.82193701171875 0.3839999999999999 6.80018701171875 0.41249999999999987 Q 6.77843701171875 0.44099999999999984 6.77843701171875 0.49049999999999994 L 6.77843701171875 0.5384999999999999 L 6.7709370117187495 0.5459999999999998 L 6.68843701171875 0.5459999999999998 Q 6.66593701171875 0.5459999999999998 6.65768701171875 0.53775 Q 6.649437011718749 0.5294999999999999 6.649437011718749 0.5024999999999998 Q 6.649437011718749 0.4694999999999999 6.669687011718749 0.43574999999999986 Q 6.68993701171875 0.4019999999999999 6.73193701171875 0.37649999999999983 Q 6.77693701171875 0.34799999999999986 6.82343701171875 0.3307499999999999 Q 6.86993701171875 0.3134999999999999 6.92243701171875 0.3134999999999999 Q 6.979437011718749 0.3134999999999999 7.03268701171875 0.32924999999999993 Q 7.08593701171875 0.34499999999999986 7.118937011718749 0.38249999999999984 Q 7.15193701171875 0.41999999999999993 7.15193701171875 0.4829999999999999 L 7.15193701171875 0.9014999999999999 Q 7.162437011718749 0.9119999999999999 7.18118701171875 0.9194999999999999 Q 7.19993701171875 0.9269999999999999 7.232937011718749 0.9269999999999999 L 7.2854370117187495 0.9269999999999999 L 7.29143701171875 0.9299999999999999 L 7.29143701171875 0.9389999999999998 Q 7.27343701171875 0.9704999999999999 7.236687011718749 0.9952499999999999 Q 7.19993701171875 1.0199999999999998 7.14743701171875 1.0199999999999998 Q 7.096437011718749 1.0199999999999998 7.06493701171875 0.9952499999999999 Q 7.03343701171875 0.9704999999999999 7.019937011718749 0.9269999999999999 L 7.00943701171875 0.9269999999999999 Q 6.97043701171875 0.9659999999999999 6.91418701171875 0.9929999999999999 Q 6.857937011718749 1.0199999999999998 6.7949370117187495 1.0199999999999998 M 6.764937011718749 0.8264999999999999 Q 6.764937011718749 0.9194999999999999 6.87443701171875 0.9194999999999999 Q 6.907437011718749 0.9194999999999999 6.93818701171875 0.91275 Q 6.96893701171875 0.9059999999999999 7.00943701171875 0.8894999999999998 L 7.00943701171875 0.6674999999999999 Q 6.90143701171875 0.6884999999999999 6.84893701171875 0.7124999999999999 Q 6.79643701171875 0.7364999999999999 6.78068701171875 0.7642499999999999 Q 6.764937011718749 0.7919999999999999 6.764937011718749 0.8264999999999999 M 7.3739296874999996 1.005 L 7.3739296874999996 0.9809999999999999 L 7.4699296875 0.9329999999999998 L 7.4699296875 0.4859999999999999 L 7.3784296875 0.40949999999999986 L 7.3784296875 0.39749999999999985 L 7.5854296875 0.3134999999999999 L 7.597429687499999 0.3134999999999999 L 7.6109296875 0.4424999999999999 L 7.6169296875 0.4424999999999999 Q 7.651429687499999 0.38549999999999984 7.6799296875 0.3577499999999999 Q 7.7084296875 0.32999999999999985 7.7339296875 0.32174999999999987 Q 7.7594296875 0.3134999999999999 7.786429687499999 0.3134999999999999 Q 7.7999296875 0.3134999999999999 7.815679687499999 0.3172499999999999 Q 7.8314296875 0.32099999999999984 7.8419296874999995 0.3254999999999999 Q 7.859929687499999 0.33299999999999985 7.8734296875 0.3434999999999999 Q 7.8869296874999995 0.35399999999999987 7.8869296874999995 0.3674999999999998 Q 7.8869296874999995 0.3809999999999999 7.880929687499999 0.39449999999999985 L 7.8494296875 0.47399999999999987 L 7.838929687499999 0.47399999999999987 L 7.786429687499999 0.45299999999999985 Q 7.768429687499999 0.44699999999999984 7.7519296875 0.44474999999999987 Q 7.7354296875 0.4424999999999999 7.718929687499999 0.4424999999999999 Q 7.6544296874999995 0.4424999999999999 7.6124296875 0.5039999999999999 L 7.6124296875 0.9329999999999998 L 7.721929687499999 0.9809999999999999 L 7.721929687499999 1.005 L 7.3739296874999996 1.005 M 8.224417236328124 1.0199999999999998 Q 8.152417236328125 1.0199999999999998 8.102167236328125 0.9809999999999999 Q 8.051917236328125 0.942 8.051917236328125 0.8714999999999999 L 8.051917236328125 0.39749999999999985 L 7.9319172363281245 0.39749999999999985 L 7.9319172363281245 0.38549999999999984 L 8.062417236328125 0.3284999999999999 L 8.179417236328124 0.16349999999999987 L 8.192917236328125 0.16349999999999987 L 8.192917236328125 0.3284999999999999 L 8.392417236328125 0.3284999999999999 L 8.392417236328125 0.39749999999999985 L 8.192917236328125 0.39749999999999985 L 8.192917236328125 0.8429999999999999 Q 8.192917236328125 0.8819999999999999 8.226667236328124 0.8999999999999999 Q 8.260417236328124 0.9179999999999999 8.306917236328125 0.9179999999999999 Q 8.335417236328125 0.9179999999999999 8.359417236328124 0.9149999999999999 Q 8.383417236328125 0.9119999999999999 8.402917236328124 0.9074999999999999 L 8.407417236328124 0.9074999999999999 L 8.407417236328124 0.9254999999999999 Q 8.389417236328125 0.9599999999999999 8.342167236328125 0.9899999999999999 Q 8.294917236328125 1.0199999999999998 8.224417236328124 1.0199999999999998" fill="#262626" fill-rule="nonzero"></path></g><g></g><g clip-path="url(#SvgjsClipPath1015)"><g clip-path="url(#SvgjsClipPath1012a8245cee-63cb-4b49-8aac-d5828339731c)"><path d=" M 3.21060753023545 -3.34053026945117 C 3.21060753023545 -3.1452439802010224 3.052296745566222 -2.986933195531794 2.857010456316074 -2.986933195531794 C 2.661724167065926 -2.986933195531794 2.503413382396698 -3.1452439802010224 2.503413382396698 -3.34053026945117 C 2.503413382396698 -3.535816558701318 2.661724167065926 -3.694127343370546 2.857010456316074 -3.694127343370546 C 3.052296745566222 -3.694127343370546 3.21060753023545 -3.535816558701318 3.21060753023545 -3.34053026945117 Z" fill="#ffbfbf" transform="matrix(1,0,0,1,0,0)" fill-rule="nonzero"></path></g><g clip-path="url(#SvgjsClipPath1012a8245cee-63cb-4b49-8aac-d5828339731c)"><path d=" M 4.259918327515676 -3.34053026945117 C 4.259918327515676 -3.1452439802010224 4.1016075428464465 -2.986933195531794 3.9063212535962997 -2.986933195531794 C 3.7110349643461515 -2.986933195531794 3.552724179676924 -3.1452439802010224 3.552724179676924 -3.34053026945117 C 3.552724179676924 -3.535816558701318 3.7110349643461515 -3.694127343370546 3.9063212535962997 -3.694127343370546 C 4.1016075428464465 -3.694127343370546 4.259918327515676 -3.535816558701318 4.259918327515676 -3.34053026945117 Z" fill="#ff8080" transform="matrix(1,0,0,1,0,0)" fill-rule="nonzero"></path></g><g clip-path="url(#SvgjsClipPath1012a8245cee-63cb-4b49-8aac-d5828339731c)"><path d=" M 5.305784997452531 -3.34053026945117 C 5.305784997452531 -3.1452439802010224 5.147474212783303 -2.986933195531794 4.952187923533156 -2.986933195531794 C 4.756901634283009 -2.986933195531794 4.59859084961378 -3.1452439802010224 4.59859084961378 -3.34053026945117 C 4.59859084961378 -3.535816558701318 4.756901634283009 -3.694127343370546 4.952187923533156 -3.694127343370546 C 5.147474212783303 -3.694127343370546 5.305784997452531 -3.535816558701318 5.305784997452531 -3.34053026945117 Z" fill="#bf0000" transform="matrix(1,0,0,1,0,0)" fill-rule="nonzero"></path></g><g clip-path="url(#SvgjsClipPath1012a8245cee-63cb-4b49-8aac-d5828339731c)"><path d=" M 5.837328650779386 -4.35195566595432 C 5.707599854179096 -4.524162033122847 5.5089885107113945 -4.622893683632803 5.293156530526841 -4.622893683632803 L 2.6744717071174358 -4.622893683632803 C 2.6251058818624573 -4.622893683632803 2.584924396189801 -4.582712197960147 2.584924396189801 -4.533346372705169 C 2.584924396189801 -4.483980547450191 2.6251058818624573 -4.4437990617775345 2.6744717071174358 -4.4437990617775345 L 5.29430457297463 -4.4437990617775345 C 5.453882473217464 -4.4437990617775345 5.599683864086819 -4.371472387566753 5.696119429701194 -4.244039675862043 C 5.792554995315569 -4.116606964157333 5.822404098958113 -3.9558810214667073 5.778778485942087 -3.803191375910613 L 5.4665109401431575 -2.7045147533754093 C 5.405664690410278 -2.4921269005342253 5.217385728972687 -2.3463255096648723 4.998109621444764 -2.3394372549781313 L 2.9683705737517214 -2.2797390476930417 C 2.829457437569109 -2.2751468779018813 2.7008766834166087 -2.2292251799902743 2.5941087357721218 -2.1534543784361215 C 2.5929606933243314 -2.162638718018443 2.5906646084287512 -2.171823057600765 2.5872204810853807 -2.181007397183086 L 1.1085418083316267 -5.560844363477381 C 1.0235866671951532 -5.7548635371539225 0.8582685547133672 -5.896072758232115 0.6527689565589245 -5.947734668382672 L 0.11204096364974914 -6.085499762117495 C 0.06382318084256158 -6.098128229043186 0.015605398035373757 -6.069427167848432 0.0029769311096816526 -6.021209385041244 C -0.009651535816010188 -5.972991602234057 0.019049525378744523 -5.9247738194268695 0.06726730818593181 -5.912145352501177 L 0.6079953010951075 -5.774380258766355 C 0.7595369042034117 -5.735346815541489 0.8823774461169611 -5.632022995240373 0.9443717382976308 -5.4885176892666 L 2.4219023686035954 -2.109828765420095 C 2.4333827930814973 -2.0822757466731314 2.4574916844850914 -2.063907067508488 2.4850447032320555 -2.058166855269537 C 2.397793477200001 -1.9628793321029523 2.3369472274671224 -1.8434829175327732 2.3151344209591085 -1.709161951141322 C 2.282989232420983 -1.511698650121411 2.338095269914912 -1.3107912217581301 2.467824066515203 -1.1581015762020357 C 2.597552863115493 -1.0054119306459413 2.7869798670008734 -0.9181607046138875 2.9867392529163643 -0.9181607046138875 L 5.48373157686001 -0.9181607046138875 C 5.533097402114987 -0.9181607046138875 5.573278887787644 -0.958342190286543 5.573278887787644 -1.007708015541521 C 5.573278887787644 -1.0570738407965 5.533097402114987 -1.0972553264691554 5.48373157686001 -1.0972553264691554 L 2.9867392529163643 -1.0972553264691554 C 2.8386417771514316 -1.0972553264691554 2.6985805985210285 -1.1615457035454062 2.6032930753544443 -1.2752019058766333 C 2.5080055521878593 -1.3877100657600723 2.4666760240674126 -1.5358075415250045 2.4907849154710062 -1.6827569748421478 C 2.5298183586958722 -1.9192537190869263 2.7318738295069442 -2.0972002984944043 2.971814701095092 -2.104088553181145 L 5.001553748788133 -2.163786760466235 C 5.300044785213581 -2.172971100048556 5.554910208623001 -2.3715824435162576 5.636421222416103 -2.658593055463803 L 5.948688768215034 -3.7572696779990067 C 6.008386975500124 -3.9616212337056584 5.968205489827467 -4.179749298785793 5.837328650779386 -4.35195566595432 Z" fill="#262626" transform="matrix(1,0,0,1,0,0)" fill-rule="nonzero"></path></g><g clip-path="url(#SvgjsClipPath1012a8245cee-63cb-4b49-8aac-d5828339731c)"><path d=" M 3.3782217276128166 -0.8584624973287971 C 3.21060753023545 -0.8584624973287971 3.073990478948418 -0.7218454460417654 3.073990478948418 -0.554231248664399 C 3.073990478948418 -0.3866170512870326 3.21060753023545 -0.2500000000000018 3.3782217276128166 -0.2500000000000018 C 3.545835924990183 -0.2500000000000018 3.682452976277215 -0.3866170512870326 3.682452976277215 -0.554231248664399 C 3.682452976277215 -0.7218454460417654 3.544687882542393 -0.8584624973287971 3.3782217276128166 -0.8584624973287971 Z M 3.3782217276128166 -0.43024266430305946 C 3.3093391807454053 -0.43024266430305946 3.253085100803687 -0.4864967442447794 3.253085100803687 -0.5553792911121889 C 3.253085100803687 -0.6242618379796001 3.3093391807454053 -0.6805159179213192 3.3782217276128166 -0.6805159179213192 C 3.447104274480228 -0.6805159179213192 3.503358354421946 -0.6242618379796001 3.503358354421946 -0.5553792911121889 C 3.503358354421947 -0.4864967442447794 3.447104274480228 -0.43024266430305946 3.3782217276128166 -0.43024266430305946 Z" fill="#262626" transform="matrix(1,0,0,1,0,0)" fill-rule="nonzero"></path></g><g clip-path="url(#SvgjsClipPath1012a8245cee-63cb-4b49-8aac-d5828339731c)"><path d=" M 4.737503985796391 -0.8584624973287971 C 4.569889788419025 -0.8584624973287971 4.433272737131993 -0.7218454460417654 4.433272737131993 -0.554231248664399 C 4.433272737131993 -0.3866170512870326 4.569889788419025 -0.2500000000000018 4.737503985796391 -0.2500000000000018 C 4.905118183173758 -0.2500000000000018 5.04173523446079 -0.3866170512870326 5.04173523446079 -0.554231248664399 C 5.04173523446079 -0.7218454460417654 4.905118183173758 -0.8584624973287971 4.737503985796391 -0.8584624973287971 Z M 4.737503985796391 -0.43024266430305946 C 4.66862143892898 -0.43024266430305946 4.612367358987262 -0.4864967442447794 4.612367358987262 -0.5553792911121889 C 4.612367358987262 -0.6242618379796001 4.66862143892898 -0.6805159179213192 4.737503985796391 -0.6805159179213192 C 4.806386532663803 -0.6805159179213192 4.862640612605521 -0.6242618379796001 4.862640612605521 -0.5553792911121889 C 4.862640612605523 -0.4864967442447794 4.806386532663803 -0.43024266430305946 4.737503985796391 -0.43024266430305946 Z" fill="#262626" transform="matrix(1,0,0,1,0,0)" fill-rule="nonzero"></path></g><g clip-path="url(#SvgjsClipPath1012a8245cee-63cb-4b49-8aac-d5828339731c)"><path d=" M 2.8168289706434178 -1.5082545227780404 C 2.7766474849707614 -1.5082545227780404 2.743354253984846 -1.474961291792126 2.743354253984846 -1.4347798061194688 C 2.743354253984846 -1.3945983204468133 2.7766474849707614 -1.361305089460898 2.8168289706434178 -1.361305089460898 L 5.018774385504986 -1.361305089460898 C 5.058955871177643 -1.361305089460898 5.092249102163557 -1.3945983204468133 5.092249102163557 -1.4347798061194688 C 5.092249102163557 -1.474961291792126 5.058955871177643 -1.5082545227780404 5.018774385504986 -1.5082545227780404 L 2.8168289706434178 -1.5082545227780404 Z" fill="#262626" transform="matrix(1,0,0,1,0,0)" fill-rule="nonzero"></path></g></g></g><defs><clipPath id="SvgjsClipPath1015"><path d=" M 0 -6.088476693227176 h 5.9757003671534195 v 5.838476693227176 h -5.9757003671534195 Z"></path></clipPath><clipPath id="SvgjsClipPath1012a8245cee-63cb-4b49-8aac-d5828339731c"><path d=" M 0 -6.088476693227175 L 5.9757003671534195 -6.088476693227175 L 5.9757003671534195 -0.2500000000000018 L 0 -0.2500000000000018 Z"></path></clipPath></defs></svg>